<svg width="32" height="32" viewBox="0 0 32 32" fill="none" xmlns="http://www.w3.org/2000/svg">
<path d="M16.0001 29.3333C23.3639 29.3333 29.3334 23.3638 29.3334 16C29.3334 8.63616 23.3639 2.66663 16.0001 2.66663C8.63628 2.66663 2.66675 8.63616 2.66675 16C2.66675 23.3638 8.63628 29.3333 16.0001 29.3333Z" stroke="white" stroke-width="2" stroke-linecap="round" stroke-linejoin="round"/>
<g clip-path="url(#clip0)">
<path d="M16 7.75V24.25" stroke="white" stroke-width="2" stroke-linecap="round" stroke-linejoin="round"/>
<path d="M19.75 10.75H14.125C13.4288 10.75 12.7611 11.0266 12.2688 11.5188C11.7766 12.0111 11.5 12.6788 11.5 13.375C11.5 14.0712 11.7766 14.7389 12.2688 15.2312C12.7611 15.7234 13.4288 16 14.125 16H17.875C18.5712 16 19.2389 16.2766 19.7312 16.7688C20.2234 17.2611 20.5 17.9288 20.5 18.625C20.5 19.3212 20.2234 19.9889 19.7312 20.4812C19.2389 20.9734 18.5712 21.25 17.875 21.25H11.5" stroke="white" stroke-width="2" stroke-linecap="round" stroke-linejoin="round"/>
</g>
<defs>
<clipPath id="clip0">
<rect width="18" height="18" fill="white" transform="translate(7 7)"/>
</clipPath>
</defs>
</svg>
